<svg width="12" height="12" viewBox="0 0 12 12" fill="none" xmlns="http://www.w3.org/2000/svg">
<path d="M5.61186 9.57414C5.65518 9.63706 5.71314 9.68851 5.78076 9.72405C5.84838 9.75959 5.92363 9.77816 6.00002 9.77816C6.07641 9.77816 6.15166 9.75959 6.21928 9.72405C6.2869 9.68851 6.34487 9.63706 6.38819 9.57414L10.6382 3.43525C10.6874 3.36445 10.7162 3.28151 10.7216 3.19546C10.727 3.10941 10.7087 3.02353 10.6686 2.94716C10.6286 2.87079 10.5685 2.80684 10.4946 2.76227C10.4208 2.7177 10.3362 2.6942 10.25 2.69434H1.75002C1.664 2.69469 1.57971 2.71849 1.5062 2.76317C1.4327 2.80785 1.37276 2.87172 1.33285 2.94792C1.29293 3.02411 1.27453 3.10975 1.27964 3.19562C1.28476 3.28148 1.31318 3.36433 1.36185 3.43525L5.61186 9.57414Z" fill="black"/>
</svg>
